<?xml version="1.0" encoding="iso-8859-1"?>
<!-- Uploaded to: SVG Repo, www.svgrepo.com, Generator: SVG Repo Mixer Tools -->
<svg fill="white" height="800px" width="800px" version="1.1" id="Layer_1" xmlns="http://www.w3.org/2000/svg" xmlns:xlink="http://www.w3.org/1999/xlink" 
	 viewBox="0 0 496 496" xml:space="preserve">
<g>
	<g>
		<g>
			<path d="M453.624,184.528C480.152,166.84,496,137.248,496,105.36v-10.2C496,42.688,453.312,0,400.84,0
				c-42.344,0-78.968,27.248-91.144,67.816C307.512,75.104,300.928,80,293.32,80H280V64h16V48h-16V32h16V16h-16V0h-16v16h-32V0h-16
				v16h-16v16h16v16h-16v16h16v16h-13.32c-7.608,0-14.2-4.896-16.384-12.184C174.128,27.248,137.496,0,95.152,0
				C42.688,0,0,42.688,0,95.152v10.2c0,31.888,15.84,61.488,42.376,79.176c16.048,10.696,28.344,25.88,35.68,43.496l-17.424,8.712
				c-4.272,2.136-9.048,3.264-13.8,3.264C21.008,240,0,261.008,0,286.832v33.08c0,12.328,5,24.4,13.72,33.12l2.24,2.24
				c5.32,5.32,8.504,12.376,8.968,19.88l7.088,113.344l15.968-1l-7.088-113.328c-0.704-11.4-5.544-22.128-13.624-30.2l-2.24-2.24
				C19.288,335.976,16,328.032,16,319.912v-33.08c0-17,13.832-30.832,30.832-30.832c7.216,0,14.464-1.712,20.944-4.944l15.36-7.68
				L95.88,291.8l-2.072,1.384c-13.576,9.048-21.552,24.792-20.816,41.096L80,488.376l15.984-0.736l-7.008-154.088
				c-0.44-9.704,3.84-19.072,11.264-25.184l0.704,2.664C108.528,339.856,134.656,360,164.48,360c29.184,0,55.16-19.592,63.168-47.64
				c1.408-4.92,5.96-8.36,11.072-8.36h18.56c5.112,0,9.664,3.44,11.072,8.352c0.608,2.12,1.384,4.248,2.232,6.36
				C261.288,335.744,256,355.264,256,376c0,66.168,53.824,120,120,120c27.496,0,52.784-9.392,73.048-25.008l-1.032,16.512l15.968,1
				l2.088-33.472C484.64,433.896,496,406.28,496,376c0-12.176-1.848-23.928-5.24-35.008c3.376-6.608,5.24-13.792,5.24-21.08v-33.08
				C496,261.008,474.992,240,449.16,240c-4.752,0-9.52-1.128-13.792-3.256l-17.432-8.712
				C425.28,210.408,437.576,195.224,453.624,184.528z M232,32h32v16h-32V32z M232,64h32v16h-32V64z M232,96h32v16h-32V96z
				 M358.56,478.416c-10.672-1.816-20.792-5.224-30.104-10.032C330.096,461.304,336.424,456,344,456c8.816,0,16,7.176,16,16
				C360,474.512,359.376,476.64,358.56,478.416z M393.44,478.416c-0.816-1.776-1.44-3.904-1.44-6.416c0-8.824,7.176-16,16-16
				c7.704,0,14.152,5.48,15.68,12.32C414.336,473.168,404.168,476.592,393.44,478.416z M471.992,415.944
				C471.968,398.328,457.632,384,440,384c-17.648,0-32,14.352-32,32s14.352,32,32,32c4.984,0,9.648-1.24,13.856-3.288
				c-4.904,5.544-10.376,10.552-16.344,14.952C432.68,448.128,421.272,440,408,440c-17.648,0-32,14.352-32,32
				c0,2.72,0.456,5.36,1.136,7.944c-0.384,0-0.752,0.056-1.136,0.056c-0.384,0-0.752-0.056-1.136-0.056
				C375.544,477.36,376,474.72,376,472c0-17.648-14.352-32-32-32c-13.28,0-24.68,8.128-29.52,19.664
				c-5.968-4.4-11.44-9.4-16.344-14.952C302.352,446.76,307.016,448,312,448c17.648,0,32-14.352,32-32s-14.352-32-32-32
				c-17.632,0-31.968,14.328-31.992,31.952c-3.264-7.816-5.496-16.136-6.768-24.768c2.216,0.488,4.464,0.816,6.76,0.816
				c17.648,0,32-14.352,32-32c0-16.4-12.432-29.792-28.344-31.632c0.904-1.752,1.888-3.448,2.888-5.144
				C292.376,331.024,301.632,336,312,336c17.648,0,32-14.352,32-32c0-9.032-3.768-17.24-9.936-23.096
				C346.912,275.216,361.08,272,376,272c14.92,0,29.088,3.216,41.928,8.904C411.768,286.76,408,294.968,408,304
				c0,17.648,14.352,32,32,32c10.368,0,19.624-4.976,25.456-12.776c1,1.688,1.984,3.392,2.888,5.144
				C452.432,330.208,440,343.6,440,360c0,17.648,14.352,32,32,32c2.296,0,4.544-0.328,6.76-0.824
				C477.488,399.808,475.256,408.128,471.992,415.944z M456,416c0,8.824-7.184,16-16,16c-8.824,0-16-7.176-16-16
				c0-8.824,7.176-16,16-16C448.816,400,456,407.176,456,416z M296,416c0-8.824,7.176-16,16-16c8.816,0,16,7.176,16,16
				c0,8.824-7.184,16-16,16C303.176,432,296,424.824,296,416z M272.112,373.792c0.216-10.256,1.872-20.16,4.872-29.488
				c0.992-0.2,2-0.304,3.016-0.304c8.816,0,16,7.176,16,16c0,8.824-7.184,16-16,16C276.744,376,274.144,374.992,272.112,373.792z
				 M296.84,308.72c6.28-7.384,13.544-13.896,21.632-19.288C324.2,291.952,328,297.568,328,304c0,8.824-7.184,16-16,16
				C304.904,320,298.856,315.32,296.84,308.72z M424,304c0-6.432,3.8-12.048,9.528-14.568c8.088,5.392,15.352,11.904,21.64,19.288
				C453.144,315.32,447.096,320,440,320C431.176,320,424,312.824,424,304z M472,376c-8.824,0-16-7.176-16-16c0-8.824,7.176-16,16-16
				c1.016,0,2.024,0.104,3.016,0.296c2.992,9.328,4.648,19.232,4.872,29.488C477.856,374.992,475.256,376,472,376z M428.224,251.056
				c6.48,3.232,13.72,4.944,20.936,4.944c17,0,30.84,13.832,30.84,30.832v29.552c-15.504-26.936-41.112-47.264-71.664-55.832
				l4.52-17.176L428.224,251.056z M398.12,236.536l-5.464,20.752C387.192,256.528,381.664,256,376,256
				c-38.448,0-72.632,18.24-94.608,46.44c-4.744-8.696-13.928-14.44-24.112-14.44h-18.56c-12.216,0-23.096,8.2-26.464,19.96
				C206.2,329.176,186.552,344,164.48,344c-22.552,0-42.32-15.232-48.064-37.056l-18.528-70.408
				c-7.048-26.776-23.608-49.976-46.632-65.32C29.176,156.504,16,131.88,16,105.36v-10.2C16,51.504,51.504,16,95.152,16
				c35.224,0,65.688,22.672,75.816,56.408C175.2,86.52,187.952,96,202.68,96H216v16h-16v16h16v16h16v-16h32v16h16v-16h16v-16h-16V96
				h13.32c14.728,0,27.48-9.48,31.712-23.592C335.152,38.672,365.616,16,400.84,16C444.488,16,480,51.504,480,95.152v10.2
				c0,26.52-13.184,51.152-35.248,65.856C421.728,186.56,405.16,209.768,398.12,236.536z"/>
			<path d="M322.08,144c-8.744,0-17.024,3.816-22.712,10.456l-31.024,36.192C263.24,196.592,255.824,200,248,200
				c-7.832,0-15.24-3.408-20.344-9.352l-31.016-36.192c-5.696-6.64-13.976-10.456-22.72-10.456c-16.496,0-29.92,13.424-29.92,29.92
				v9.84c0,7.248,2.624,14.24,7.4,19.696l40.184,45.92c8.12,9.296,19.864,14.624,32.208,14.624h48.424
				c12.344,0,24.088-5.328,32.208-14.616l40.176-45.92c4.776-5.456,7.4-12.448,7.4-19.696v-9.84C352,157.424,338.576,144,322.08,144
				z M336,183.768c0,3.368-1.224,6.624-3.448,9.168l-40.176,45.92c-5.088,5.808-12.44,9.144-20.168,9.144h-48.424
				c-7.728,0-15.08-3.336-20.16-9.152l-40.176-45.92c-2.224-2.536-3.448-5.792-3.448-9.16v-9.84c0-7.68,6.24-13.92,13.92-13.92
				c4.072,0,7.92,1.776,10.568,4.856l31.024,36.192C223.648,210.552,235.488,216,248,216c12.504,0,24.352-5.448,32.48-14.944
				l31.032-36.192c2.64-3.088,6.496-4.864,10.568-4.864c7.68,0,13.92,6.24,13.92,13.92V183.768z"/>
			<path d="M376,336c17.648,0,32-14.352,32-32s-14.352-32-32-32s-32,14.352-32,32S358.352,336,376,336z M376,288
				c8.816,0,16,7.176,16,16c0,8.824-7.184,16-16,16c-8.824,0-16-7.176-16-16C360,295.176,367.176,288,376,288z"/>
			<path d="M344,392c17.648,0,32-14.352,32-32s-14.352-32-32-32s-32,14.352-32,32S326.352,392,344,392z M344,344
				c8.816,0,16,7.176,16,16c0,8.824-7.184,16-16,16c-8.824,0-16-7.176-16-16C328,351.176,335.176,344,344,344z"/>
			<path d="M408,328c-17.648,0-32,14.352-32,32s14.352,32,32,32s32-14.352,32-32S425.648,328,408,328z M408,376
				c-8.824,0-16-7.176-16-16c0-8.824,7.176-16,16-16c8.816,0,16,7.176,16,16C424,368.824,416.816,376,408,376z"/>
			<path d="M376,384c-17.648,0-32,14.352-32,32s14.352,32,32,32s32-14.352,32-32S393.648,384,376,384z M376,432
				c-8.824,0-16-7.176-16-16c0-8.824,7.176-16,16-16c8.816,0,16,7.176,16,16C392,424.824,384.816,432,376,432z"/>
		</g>
	</g>
</g>
</svg>