<?xml version="1.0" encoding="iso-8859-1"?>
<!-- Uploaded to: SVG Repo, www.svgrepo.com, Generator: SVG Repo Mixer Tools -->
<svg height="800px" width="800px" version="1.1" id="Layer_1" xmlns="http://www.w3.org/2000/svg" xmlns:xlink="http://www.w3.org/1999/xlink" 
	 viewBox="0 0 503.467 503.467" xml:space="preserve">
<g transform="translate(5 1)">
	<path style="fill:#FF7474;" d="M459.64,225.133c0,69.12-58.88,185.173-213.333,273.067
		C132.814,433.347,71.373,353.987,45.773,289.133c-9.387-23.893-12.8-45.227-12.8-64c0-65.707,53.76-119.467,119.467-119.467
		c5.973,0,11.947,0,17.067,0.853c11.947,1.707,23.893,5.12,34.133,10.24c17.067,7.68,31.573,19.627,42.667,34.133
		c11.093-14.507,25.6-26.453,42.667-34.133V97.133c0-23.893-13.653-43.52-33.28-53.76c-7.68-4.267-17.067-5.973-26.453-5.973
		h-29.867H152.44c-9.387,0-17.067-7.68-17.067-17.067s7.68-17.067,17.067-17.067h76.8c12.8,0,25.6,2.56,37.547,7.68
		c13.653,5.973,25.6,15.36,34.987,26.453c13.653,16.213,21.333,36.693,21.333,58.88v10.24c5.12-0.853,11.093-1.707,17.067-1.707
		C405.88,105.667,459.64,159.427,459.64,225.133"/>
	<path style="fill:#80D6FA;" d="M340.173,3.267c9.387,0,17.067,7.68,17.067,17.067c0,8.533-6.827,16.213-15.36,17.067l-40.96,0.853
		l0,0c-9.387-11.093-21.333-20.48-34.987-26.453l0.853-0.853C286.413,4.12,316.28,4.12,316.28,4.12h23.893V3.267z M229.24,37.4
		c9.387,0,18.773,2.56,26.453,5.973l-0.853,2.56c-29.013,3.413-45.227,25.6-45.227,25.6c-3.413,7.68-5.973,16.213-5.973,25.6v20.48
		c-10.24-5.12-22.187-8.533-34.133-10.24v-10.24c0-8.533,1.707-17.067,3.413-25.6c0,0,7.68-26.453,26.453-33.28V37.4H229.24z"/>
</g>
<path style="fill:#51565F;" d="M251.307,503.467c-0.853,0-1.707,0-1.707-0.853C101.12,417.28,33.707,302.08,33.707,226.133
	c0-68.267,55.467-123.733,123.733-123.733c4.267,0,8.533,0,12.8,0.853v-5.12c0-9.387,1.707-17.92,4.267-26.453
	c0.853-1.707,2.56-3.413,5.12-2.56s3.413,2.56,3.413,4.267l-3.413,31.573c8.533,1.707,17.067,4.267,24.747,7.68V98.133
	c0-9.387,1.707-18.773,5.973-27.307c0.853-1.707,3.413-2.56,5.12-2.56c1.707,0.853,3.413,2.56,3.413,4.267l-5.12,42.667
	c14.507,7.68,27.307,17.067,38.4,29.867c10.24-11.947,23.893-23.04,38.4-29.867V98.133c0-30.72-24.747-55.467-55.467-55.467h-76.8
	c-11.947,0-21.333-9.387-21.333-21.333S146.347,0,158.293,0h76.8C288,0,333.227,45.227,333.227,98.133v5.12
	c4.267-0.853,8.533-0.853,12.8-0.853c68.267,0,123.733,55.467,123.733,123.733c0,76.8-66.56,192-215.893,276.48
	C253.013,503.467,252.16,503.467,251.307,503.467z M55.893,290.987c25.6,65.707,88.747,141.653,195.413,203.093
	c52.907-30.72,95.573-64.853,128-99.84L369.067,384h-40.96c-2.56,0-4.267-1.707-4.267-4.267s1.707-4.267,4.267-4.267h32.427
	l-26.453-26.453c-0.853-0.853-0.853-1.707-0.853-3.413s0-2.56,0.853-3.413c1.707-1.707,4.267-1.707,5.973,0l45.227,45.227
	c51.2-58.027,75.093-116.907,75.093-162.133c0-29.867-11.947-58.027-30.72-78.507l-29.867,29.867c-1.707,1.707-4.267,1.707-5.973,0
	c-0.853-0.853-0.853-1.707-0.853-3.413c0-1.707,0-2.56,0.853-3.413l29.867-29.867c-20.48-18.773-47.787-30.72-78.507-30.72
	c-5.12,0-10.24,0-16.213,1.707c-0.853,0-2.56,0-3.413-0.853c-0.853-0.853-1.707-1.707-1.707-3.413v-8.533
	c0-48.64-40.96-89.6-89.6-89.6h-76.8c-6.827,0-12.8,5.973-12.8,12.8s5.973,12.8,12.8,12.8h76.8c34.987,0,64,29.013,64,64v20.48
	c0,1.707-0.853,3.413-2.56,4.267c-16.213,7.68-29.867,18.773-40.96,33.28c-1.707,1.707-5.12,1.707-6.827,0
	c-11.093-13.653-24.747-24.747-40.107-32.427c-0.853,0-1.707-0.853-2.56-0.853c-9.387-4.267-19.627-7.68-29.867-9.387
	c-0.853,0-0.853,0-1.707,0c-0.853,0-1.707,0-1.707-0.853c-5.12-0.853-9.387-0.853-14.507-0.853c-63.147,0-115.2,52.053-115.2,115.2
	c0,17.067,3.413,35.84,10.24,56.32l7.68-7.68l0,0l34.133-34.133c1.707-1.707,4.267-1.707,5.973,0
	c0.853,0.853,0.853,1.707,0.853,3.413s0,2.56-0.853,3.413l-26.453,26.453h32.427c2.56,0,4.267,1.707,4.267,4.267
	s-1.707,4.267-4.267,4.267H65.28L55.893,290.987z M346.88,42.667c-1.707,0-4.267-1.707-4.267-3.413c0-2.56,1.707-4.267,3.413-5.12
	c6.827-0.853,11.093-5.973,11.093-12.8s-5.973-12.8-12.8-12.8h-23.893c-2.56,0-4.267-1.707-4.267-4.267S317.867,0,320.427,0h23.893
	c11.947,0,21.333,9.387,21.333,21.333C366.507,32.427,358.827,40.96,346.88,42.667C347.733,42.667,347.733,42.667,346.88,42.667z"/>
</svg>